<?xml version="1.0" encoding="utf-8"?>
<!DOCTYPE svg PUBLIC "-//W3C//DTD SVG 1.1//EN" "http://www.w3.org/Graphics/SVG/1.1/DTD/svg11.dtd">
<svg aria-labelledby="title-bank" version="1.1" xmlns="http://www.w3.org/2000/svg" xmlns:xlink="http://www.w3.org/1999/xlink" x="0px" y="0px" width="32px" height="32px" viewBox="0 0 32 32" enable-background="new 0 0 32 32" xml:space="preserve">
	<title id="title-bank" lang="en">Bank</title>

	<path fill="#5b6871" class="icons-background" d="M32,8v2h-4v16h2v3h2v3H0v-3h2v-3h2V10H0V8l16.2-8L32,8z M17.6,22.4c-0.3,0.1-0.6,0.2-0.8,0.2v-4.2
		c0.9,0.2,1.5,0.5,1.8,0.8c0.4,0.3,0.5,0.7,0.5,1.3c0,0.4-0.1,0.7-0.2,0.9c-0.1,0.3-0.3,0.5-0.6,0.6C18.1,22.2,17.9,22.3,17.6,22.4
		 M14.7,11.4c0.2-0.1,0.5-0.1,0.7-0.1v3.6c-0.7-0.2-1.2-0.4-1.5-0.6c-0.3-0.3-0.5-0.6-0.5-1.1c0-0.3,0.1-0.6,0.2-0.8
		c0.1-0.2,0.3-0.4,0.5-0.6C14.3,11.6,14.5,11.5,14.7,11.4 M13.8,21.7c-0.5-0.5-0.7-1.1-0.7-2H10c0.1,1.7,0.7,3,1.6,3.9
		c0.9,0.9,2.2,1.4,3.8,1.5V27h1.3v-1.9c1.1-0.1,2-0.3,2.7-0.7c0.7-0.4,1.3-0.8,1.7-1.3c0.4-0.5,0.7-0.9,0.9-1.4
		c0.2-0.5,0.2-0.9,0.2-1.2c0-0.4,0-0.8-0.1-1.3c-0.1-0.5-0.2-0.9-0.5-1.4c-0.3-0.5-0.7-0.9-1.3-1.4c-0.6-0.4-1.4-0.8-2.5-1.1
		c-0.2-0.1-0.4-0.1-0.6-0.2c-0.2,0-0.4-0.1-0.5-0.1v-3.9c0.5,0,0.9,0.2,1.3,0.6c0.4,0.4,0.5,0.9,0.5,1.5h3.1c0-0.8-0.2-1.4-0.5-2
		c-0.3-0.6-0.6-1-1.1-1.4c-0.4-0.4-0.9-0.7-1.5-0.9c-0.6-0.2-1.2-0.4-1.9-0.4V7h-1.3v1.7c-0.7,0-1.3,0.2-1.9,0.4
		c-0.6,0.2-1.2,0.5-1.6,0.9c-0.5,0.4-0.8,0.9-1.1,1.4c-0.3,0.6-0.4,1.2-0.4,2c0,0.7,0.1,1.3,0.4,1.8c0.2,0.5,0.6,0.9,1,1.2
		c0.4,0.3,0.9,0.6,1.4,0.8c0.5,0.2,1.1,0.4,1.6,0.5c0.1,0,0.3,0.1,0.4,0.1s0.2,0.1,0.3,0.1v4.6C14.8,22.4,14.2,22.1,13.8,21.7"/>
</svg>