<?xml version="1.0" encoding="utf-8"?>
<!DOCTYPE svg PUBLIC "-//W3C//DTD SVG 1.1//EN" "http://www.w3.org/Graphics/SVG/1.1/DTD/svg11.dtd">
<svg aria-labelledby="title-google-plus" version="1.1" xmlns="http://www.w3.org/2000/svg" xmlns:xlink="http://www.w3.org/1999/xlink" x="0px" y="0px" width="32px" height="32px" viewBox="0 0 32 32" enable-background="new 0 0 32 32" xml:space="preserve">
	<title id="title-google-plus" lang="en">Google+</title>
	<g>
		<rect width="32" height="32" rx="1.81" ry="1.81" fill="#e05543"/>
		<g>
			<path d="M16.8,17.8l-1-.8a1.74,1.74,0,0,1-.8-1.3,1.84,1.84,0,0,1,.8-1.4c1.2-1,2.5-2,2.5-4.2a5.1,5.1,0,0,0-2.1-4H18l1.9-1.2H14.1A8.61,8.61,0,0,0,8.6,6.7a5.21,5.21,0,0,0-1.9,3.9,4.66,4.66,0,0,0,4.71,4.61H11.6a2.77,2.77,0,0,0,.9-0.1,3.54,3.54,0,0,0-.3,1.1,3.12,3.12,0,0,0,.9,2c-1.3.1-3.8,0.2-5.6,1.4a4.3,4.3,0,0,0-2.3,3.6c0,2.2,2.1,4.2,6.3,4.2,5,0,7.7-2.8,7.7-5.6,0.1-1.9-1.1-2.9-2.4-4M13,26.2c-3.1,0-5.2-1.5-5.2-3.6a3.24,3.24,0,0,1,2.5-3,12.44,12.44,0,0,1,3.1-.5h0.7c2.2,1.6,3.2,2.4,3.2,3.9,0,1.9-1.5,3.2-4.3,3.2m0-11.8c-2.5,0-3.7-3.3-3.7-5.2A3.41,3.41,0,0,1,10,7a2.81,2.81,0,0,1,2.1-1c2.4,0,3.7,3.3,3.7,5.4a3.11,3.11,0,0,1-.7,2.1,3,3,0,0,1-2.1.9" transform="translate(0 0)" fill="#fff"/>
			<polygon points="24.2 14.4 24.2 11.4 22.8 11.4 22.8 14.4 19.9 14.4 19.9 15.8 22.8 15.8 22.8 18.8 24.2 18.8 24.2 15.8 27.2 15.8 27.2 14.4 24.2 14.4" fill="#fff"/>
		</g>
	</g>
</svg>
