<?xml version="1.0" encoding="utf-8"?>
<!DOCTYPE svg PUBLIC "-//W3C//DTD SVG 1.1//EN" "http://www.w3.org/Graphics/SVG/1.1/DTD/svg11.dtd">
<svg aria-labelledby="title-store-google" version="1.1" xmlns="http://www.w3.org/2000/svg" xmlns:xlink="http://www.w3.org/1999/xlink" x="0px" y="0px" width="170px" height="50px" viewBox="0 0 170 50" enable-background="new 0 0 170 50" xml:space="preserve">
	<title id="title-store-google" lang="en">Google Store</title>
    <defs>
        <linearGradient id="a" x1="27.46" y1="1106.94" x2="6.32" y2="1128.08" gradientTransform="translate(0 -1096)" gradientUnits="userSpaceOnUse">
            <stop offset="0" stop-color="#00a0ff" />
            <stop offset="0.01" stop-color="#00a1ff" />
            <stop offset="0.26" stop-color="#00beff" />
            <stop offset="0.51" stop-color="#00d2ff" />
            <stop offset="0.76" stop-color="#00dfff" />
            <stop offset="1" stop-color="#00e3ff" />
        </linearGradient>
        <linearGradient id="b" x1="42.61" y1="1121.1" x2="12.14" y2="1121.1" gradientTransform="translate(0 -1096)" gradientUnits="userSpaceOnUse">
            <stop offset="0" stop-color="#ffe000" />
            <stop offset="0.41" stop-color="#ffbd00" />
            <stop offset="0.78" stop-color="orange" />
            <stop offset="1" stop-color="#ff9c00" />
        </linearGradient>
        <linearGradient id="c" x1="31.28" y1="1124.07" x2="2.62" y2="1152.73" gradientTransform="translate(0 -1096)" gradientUnits="userSpaceOnUse">
            <stop offset="0" stop-color="#ff3a44" />
            <stop offset="1" stop-color="#c31162" />
        </linearGradient>
        <linearGradient id="d" x1="9.22" y1="1096.17" x2="22.01" y2="1108.96" gradientTransform="translate(0 -1096)" gradientUnits="userSpaceOnUse">
            <stop offset="0" stop-color="#32a071" />
            <stop offset="0.07" stop-color="#2da771" />
            <stop offset="0.48" stop-color="#15cf74" />
            <stop offset="0.8" stop-color="#06e775" />
            <stop offset="1" stop-color="#00f076" />
        </linearGradient>
    </defs>
    <path d="M164,0H6A6,6,0,0,0,0,6V44a6,6,0,0,0,6,6H164a6,6,0,0,0,6-6V6a6,6,0,0,0-6-6h0Z" transform="translate(0 0)" fill="#a6a6a6" />
    <path d="M164,1a5,5,0,0,1,5,5V44a5,5,0,0,1-5,5H6a5,5,0,0,1-5-5V6A5,5,0,0,1,6,1H164" transform="translate(0 0)" />
    <path d="M59.7,12.9a3.33,3.33,0,0,1-.9,2.5A3.76,3.76,0,0,1,56,16.5a4.11,4.11,0,0,1-2.8-1.1,3.69,3.69,0,0,1-1.1-2.8,3.93,3.93,0,0,1,1.1-2.8A3.78,3.78,0,0,1,56,8.6a4.53,4.53,0,0,1,1.6.3,3.6,3.6,0,0,1,1.2.8l-0.7.7A2.58,2.58,0,0,0,56,9.5a3.23,3.23,0,0,0-2.1.8,2.94,2.94,0,0,0-.9,2.2,2.94,2.94,0,0,0,.9,2.2,2.78,2.78,0,0,0,2.1.8,3.23,3.23,0,0,0,2.1-.8,2,2,0,0,0,.6-1.5H56V12.3h3.7v0.6Z" transform="translate(0 0)" fill="#fff" stroke="#fff" stroke-miterlimit="10" stroke-width="0.2" />
    <path d="M65.5,9.7H62.1v2.4h3.1V13H62.1v2.4h3.4v0.9H61.1V8.8h4.4V9.7Z" transform="translate(0 0)" fill="#fff" stroke="#fff" stroke-miterlimit="10" stroke-width="0.2" />
    <path d="M69.6,16.3h-1V9.7H66.5V8.8h5.2V9.7H69.6v6.6Z" transform="translate(0 0)" fill="#fff" stroke="#fff" stroke-miterlimit="10" stroke-width="0.2" />
    <path d="M75.5,16.3V8.8h1v7.6h-1V16.3Z" transform="translate(0 0)" fill="#fff" stroke="#fff" stroke-miterlimit="10" stroke-width="0.2" />
    <path d="M80.8,16.3h-1V9.7H77.7V8.8h5.2V9.7H80.8v6.6Z" transform="translate(0 0)" fill="#fff" stroke="#fff" stroke-miterlimit="10" stroke-width="0.2" />
    <path d="M92.7,15.4a3.55,3.55,0,0,1-2.8,1.1,4.11,4.11,0,0,1-2.8-1.1,4.11,4.11,0,0,1,0-5.6,3.87,3.87,0,0,1,5.6,0A4.11,4.11,0,0,1,92.7,15.4Zm-4.8-.7a2.65,2.65,0,0,0,2.1.8,3.23,3.23,0,0,0,2.1-.8,2.86,2.86,0,0,0,.8-2.2,3.12,3.12,0,0,0-.9-2.1,2.65,2.65,0,0,0-2.1-.8,3.23,3.23,0,0,0-2.1.8,3.29,3.29,0,0,0-.8,2.2A2.58,2.58,0,0,0,87.9,14.7Z" transform="translate(0 0)" fill="#fff" stroke="#fff" stroke-miterlimit="10" stroke-width="0.2" />
    <path d="M95.2,16.3V8.8h1.2l3.7,5.9h0V8.8h1v7.6h-1l-3.8-6.2h0v6.2H95.2V16.3Z" transform="translate(0 0)" fill="#fff" stroke="#fff" stroke-miterlimit="10" stroke-width="0.2" />
    <path d="M85.8,27.4a5.4,5.4,0,1,0,5.4,5.4A5.26,5.26,0,0,0,85.8,27.4Zm0,8.6a3.21,3.21,0,1,1,3-3.2A3.12,3.12,0,0,1,85.8,36ZM74.1,27.4a5.4,5.4,0,1,0,5.4,5.4A5.38,5.38,0,0,0,74.1,27.4Zm0,8.6a3.21,3.21,0,1,1,3-3.2A3.12,3.12,0,0,1,74.1,36Zm-14-7v2.3h5.4a5.55,5.55,0,0,1-1.2,2.9,5.5,5.5,0,0,1-4.2,1.7,6,6,0,0,1-6-6,6,6,0,0,1,10.1-4.4l1.6-1.6a8.06,8.06,0,0,0-5.7-2.3,8.3,8.3,0,1,0,0,16.6,7.68,7.68,0,0,0,5.8-2.3,7.52,7.52,0,0,0,2-5.3,6.15,6.15,0,0,0-.1-1.4H60.1V29Zm57.1,1.8a4.91,4.91,0,0,0-4.6-3.4,5.13,5.13,0,0,0-5.1,5.4,5.34,5.34,0,0,0,9.8,3l-1.8-1.2a3,3,0,0,1-2.6,1.5,2.72,2.72,0,0,1-2.6-1.6l7.2-3Zm-7.3,1.8a2.87,2.87,0,0,1,2.8-3.1,2.27,2.27,0,0,1,2,1.1Zm-5.8,5.1h2.4V22h-2.4V37.7Zm-3.9-9.1h0a4.11,4.11,0,0,0-2.9-1.2,5.36,5.36,0,0,0,0,10.7,3.68,3.68,0,0,0,2.8-1.2h0.1v0.7c0,2-1.1,3.1-2.9,3.1a3,3,0,0,1-2.7-1.9l-2,.9a5.21,5.21,0,0,0,4.7,3.2c2.8,0,5.1-1.6,5.1-5.6V27.7h-2.2v0.9ZM97.5,36a3.26,3.26,0,0,1,0-6.5,3.07,3.07,0,0,1,2.9,3.3A3,3,0,0,1,97.5,36Zm30.7-14h-5.6V37.7h2.3v-6h3.3a5,5,0,0,0,5.2-4.9A5,5,0,0,0,128.2,22Zm0.1,7.6H125V24.2h3.3a2.77,2.77,0,0,1,2.8,2.7A2.92,2.92,0,0,1,128.3,29.6Zm14.5-2.3a4.32,4.32,0,0,0-4.2,2.4l2.1,0.9a2.17,2.17,0,0,1,2.1-1.2,2.27,2.27,0,0,1,2.5,2v0.2a5.6,5.6,0,0,0-2.5-.6c-2.2,0-4.5,1.2-4.5,3.5a3.64,3.64,0,0,0,3.9,3.5,3.28,3.28,0,0,0,3-1.5h0.1v1.2h2.3v-6C147.6,28.9,145.5,27.3,142.8,27.3ZM142.5,36c-0.8,0-1.8-.4-1.8-1.3,0-1.2,1.3-1.7,2.5-1.7a4.06,4.06,0,0,1,2.1.5A2.89,2.89,0,0,1,142.5,36Zm13.3-8.3-2.7,6.8H153l-2.8-6.8h-2.5l4.2,9.5-2.4,5.3H152l6.5-14.8h-2.7Zm-21.1,10H137V22h-2.3V37.7Z" transform="translate(0 0)" fill="#fff" />
    <path d="M13.1,9.5a2.44,2.44,0,0,0-.6,1.8V39.1a2.44,2.44,0,0,0,.6,1.8L13.2,41,28.8,25.4V25L13.1,9.5h0Z" transform="translate(0 0)" fill="url(#a)" />
    <path d="M34,30.5l-5.2-5.2V24.9L34,19.7l0.1,0.1,6.2,3.5c1.8,1,1.8,2.6,0,3.6l-6.2,3.5Z" transform="translate(0 0)" fill="url(#b)" />
    <path d="M34.2,30.5l-5.3-5.3L13.1,40.9a2.06,2.06,0,0,0,2.6.1L34.2,30.5" transform="translate(0 0)" fill="url(#c)" />
    <path d="M34.2,19.8L15.8,9.4a2.06,2.06,0,0,0-2.6.1L28.9,25.2Z" transform="translate(0 0)" fill="url(#d)" />
    <path d="M34,30.4L15.8,40.7a2.08,2.08,0,0,1-2.5,0h0l-0.1.1h0l0.1,0.1h0a2.08,2.08,0,0,0,2.5,0L34.2,30.4H34Z" transform="translate(0 0)" opacity="0.2" style="isolation:isolate" />
    <path d="M13.1,40.7a2.44,2.44,0,0,1-.6-1.8v0.2a2.44,2.44,0,0,0,.6,1.8V40.7h0Z" transform="translate(0 0)" opacity="0.12" style="isolation:isolate" />
    <path d="M40.3,26.8L34,30.4l0.1,0.1L40.3,27a2.19,2.19,0,0,0,1.3-1.8h0A2.16,2.16,0,0,1,40.3,26.8Z" transform="translate(0 0)" opacity="0.12" style="isolation:isolate" />
    <path d="M15.8,9.6l24.6,14a2.41,2.41,0,0,1,1.3,1.6h0a2.07,2.07,0,0,0-1.3-1.8L15.8,9.4c-1.8-1-3.2-.2-3.2,1.8v0.2C12.6,9.4,14,8.6,15.8,9.6Z" transform="translate(0 0)" fill="#fff" opacity="0.25" style="isolation:isolate" />
</svg>
