<?xml version="1.0" encoding="utf-8"?>
<!DOCTYPE svg PUBLIC "-//W3C//DTD SVG 1.1//EN" "http://www.w3.org/Graphics/SVG/1.1/DTD/svg11.dtd">
<svg aria-labelledby="title-wheelchair" version="1.1" xmlns="http://www.w3.org/2000/svg" xmlns:xlink="http://www.w3.org/1999/xlink" x="0px" y="0px" width="32px" height="32px" viewBox="0 0 32 32" enable-background="new 0 0 32 32" xml:space="preserve">
	<title id="title-wheelchair" lang="en">Wheelchair</title>

	<path fill="#5b6871" class="icons-background" d="M12.3,5.6c-1.6,0-2.8-1.3-2.8-2.8c0-1.6,1.3-2.8,2.8-2.8c1.6,0,2.8,1.3,2.8,2.8C15.1,4.4,13.9,5.6,12.3,5.6
		 M25.7,26.4c0.5,0.7,1.5,1,2.3,0.6c0.8-0.5,1-1.4,0.6-2.2l-4.8-8.3c-0.3-0.5-0.8-0.8-1.4-0.8h-7l-0.1-2.2h5c0.7,0,1.3-0.5,1.3-1.2
		c0-0.7-0.6-1.2-1.3-1.3h-5.1l-0.2-2.4c-0.1-1.5-1.4-2.6-2.9-2.6c-1.5,0.1-2.6,1.4-2.6,2.9l0.5,8.5c0.1,1.5,1.4,2.6,2.9,2.6H22
		L25.7,26.4z M14.1,29.8c-4.6,0-8.4-3.7-8.4-8.4c0-2.5,1.1-4.8,2.9-6.3l-0.1-2.6c-3,1.9-5,5.2-5,8.9C3.5,27.3,8.2,32,14.1,32
		c4.3,0,8-2.6,9.6-6.3l-1.5-2.6C21.4,26.9,18.1,29.8,14.1,29.8"/>
</svg>