<?xml version="1.0" encoding="utf-8"?>
<!DOCTYPE svg PUBLIC "-//W3C//DTD SVG 1.1//EN" "http://www.w3.org/Graphics/SVG/1.1/DTD/svg11.dtd">
<svg aria-labelledby="title-youtube" version="1.1" xmlns="http://www.w3.org/2000/svg" xmlns:xlink="http://www.w3.org/1999/xlink" x="0px" y="0px" width="32px" height="32px" viewBox="0 0 32 32" enable-background="new 0 0 32 32" xml:space="preserve">
	<title id="title-youtube" lang="en">Youtube</title>
  <g>
    <rect width="32" height="32" rx="1.81" ry="1.81" fill="#e6e7e8"/>
    <g>
      <path d="M27.5,21.8a25.48,25.48,0,0,1-.4,5.5,3.11,3.11,0,0,1-2.5,2.3,84.31,84.31,0,0,1-8.7.3,84.31,84.31,0,0,1-8.7-.3,2.85,2.85,0,0,1-2.5-2.3,25.48,25.48,0,0,1-.4-5.5,25.48,25.48,0,0,1,.4-5.5A3.11,3.11,0,0,1,7.2,14a84.31,84.31,0,0,1,8.7-.3,84.31,84.31,0,0,1,8.7.3,2.85,2.85,0,0,1,2.5,2.3,25.48,25.48,0,0,1,.4,5.5" transform="translate(0 0)" fill="#e82c2e"/>
      <path d="M13.5,1.8H11.9L10.8,5.9l-1-4.1H8.1c0.3,1,.7,1.9,1,2.9,0.5,1.5.8,2.6,1,3.3v4.2h1.6V8.1l1.8-6.3" transform="translate(0 0)" fill="#19171c"/>
      <path d="M17.7,9.8V7a3,3,0,0,0-.4-1.8,2,2,0,0,0-1.7-.8,1.82,1.82,0,0,0-1.6.8A3,3,0,0,0,13.6,7V9.7a3,3,0,0,0,.4,1.8,1.94,1.94,0,0,0,1.6.8,2.14,2.14,0,0,0,1.7-.8,2.5,2.5,0,0,0,.4-1.7m-1.4.2c0,0.7-.2,1.1-0.7,1.1s-0.7-.4-0.7-1.1V6.7c0-.7.2-1.1,0.7-1.1s0.7,0.4.7,1.1V10Z" transform="translate(0 0)" fill="#19171c"/>
      <path d="M23,12.3V4.5H21.6v6a1.4,1.4,0,0,1-.9.7,0.27,0.27,0,0,1-.3-0.3V4.5H19v6.2a3.78,3.78,0,0,0,.1,1.2,0.87,0.87,0,0,0,.9.6,2.07,2.07,0,0,0,1.6-1v0.9H23V12.3Z" transform="translate(0 0)" fill="#19171c"/>
      <path d="M13.8,19.1V25a1.4,1.4,0,0,1-.9.7,0.27,0.27,0,0,1-.3-0.3V19.2H11.2v6.1a3.11,3.11,0,0,0,.1,1.1,0.87,0.87,0,0,0,.9.6,2.23,2.23,0,0,0,1.6-1v0.8h1.4V19.1H13.8ZM23,21.3c0-.7.2-1.1,0.7-1.1s0.7,0.4.7,1.1V22H23V21.3Zm-0.9-1.5a3,3,0,0,0-.4,1.8v2.7a4,4,0,0,0,.4,1.8,2.21,2.21,0,0,0,3.4,0,1.14,1.14,0,0,0,.3-0.8V24.2H24.4v0.9a0.64,0.64,0,0,1-.6.6c-0.5,0-.7-0.4-0.7-1.1V23.2h2.8V21.6a3,3,0,0,0-.4-1.8,2.17,2.17,0,0,0-1.8-.8,1.72,1.72,0,0,0-1.6.8m-16-3.4v1.5H7.7v8.9H9.3V17.9H11V16.4H6.1Zm11.7,8.9V20.6a1.08,1.08,0,0,1,.7-0.3c0.4,0,.6.4,0.6,1.1v3.3c0,0.7-.2,1-0.6,1a5.74,5.74,0,0,1-.7-0.4m-1.4-8.9V26.8h1.4V26a1.89,1.89,0,0,0,1.4.9,1.07,1.07,0,0,0,1.1-.9,6.22,6.22,0,0,0,.1-1.6V21.3a7.12,7.12,0,0,0-.1-1.6,1.15,1.15,0,0,0-1.1-.9,1.87,1.87,0,0,0-1.4.8V16.2H16.4v0.2Z" transform="translate(0 0)" fill="#fff"/>
    </g>
  </g>
</svg>
